<?xml version="1.0" standalone="no"?>
<!DOCTYPE svg PUBLIC "-//W3C//DTD SVG 20010904//EN"
 "http://www.w3.org/TR/2001/REC-SVG-20010904/DTD/svg10.dtd">
<svg version="1.0" xmlns="http://www.w3.org/2000/svg"
 width="165.000000pt" height="165.000000pt" viewBox="0 0 165.000000 165.000000"
 preserveAspectRatio="xMidYMid meet">

<g transform="translate(0.000000,165.000000) scale(0.100000,-0.100000)"
fill="#1de9b6" stroke="none">
<path d="M290 1248 c-11 -19 -20 -51 -20 -74 0 -40 -1 -41 -57 -64 -125 -52
-188 -147 -187 -285 0 -96 21 -148 87 -216 84 -88 226 -115 337 -63 30 14 65
35 77 46 19 18 26 19 54 9 72 -25 69 -31 69 168 l0 178 -163 167 c-89 91 -166
166 -170 166 -4 0 -16 -15 -27 -32z m152 -305 c36 -37 42 -48 46 -97 5 -68 -9
-106 -54 -146 -66 -58 -154 -52 -220 14 -52 51 -65 110 -39 171 32 79 79 107
168 102 53 -3 62 -7 99 -44z"/>
<path d="M1162 1116 l-162 -164 0 -181 c0 -201 -3 -195 68 -170 28 9 35 7 69
-19 133 -103 321 -77 428 60 87 112 85 263 -7 379 -31 40 -56 59 -109 83 -68
31 -69 32 -69 70 0 36 -32 106 -49 106 -4 0 -80 -74 -169 -164z m256 -153 c98
-73 86 -235 -22 -284 -74 -34 -144 -20 -201 40 -28 30 -30 38 -30 106 0 84 16
114 75 147 46 25 138 21 178 -9z"/>
<path d="M780 1120 c-19 -19 -20 -33 -20 -363 0 -329 1 -345 20 -362 25 -22
65 -22 90 0 19 17 20 33 20 362 0 330 -1 344 -20 363 -11 11 -31 20 -45 20
-14 0 -34 -9 -45 -20z"/>
</g>
</svg>
